<svg width="18" height="18" viewBox="0 0 18 18" fill="none" xmlns="http://www.w3.org/2000/svg">
<path fill-rule="evenodd" clip-rule="evenodd" d="M5.62006 2.30283C4.36614 2.93688 3.31417 3.91295 2.58666 5.10935C2.01964 6.04183 1.65027 7.10763 1.53698 8.25H4.01656C4.10886 6.16919 4.5825 4.27018 5.32807 2.8229C5.41981 2.64482 5.51719 2.47103 5.62006 2.30283ZM9 0C5.73829 0 2.88264 1.73557 1.30501 4.33C0.476807 5.692 0 7.29147 0 9C0 13.9706 4.02944 18 9 18C13.9706 18 18 13.9706 18 9C18 7.29147 17.5232 5.692 16.695 4.33C15.1174 1.73557 12.2617 0 9 0ZM8.25 1.69419C7.70918 1.9718 7.15257 2.55664 6.66153 3.50984C6.0393 4.71769 5.60954 6.37361 5.51816 8.25H8.25V1.69419ZM8.25 9.75H5.51816C5.60954 11.6264 6.0393 13.2823 6.66153 14.4902C7.15257 15.4434 7.70918 16.0282 8.25 16.3058V9.75ZM5.61994 15.697C5.51711 15.5288 5.41977 15.3551 5.32807 15.1771C4.5825 13.7298 4.10886 11.8308 4.01656 9.75H1.53703C1.79567 12.355 3.38718 14.5678 5.61994 15.697ZM12.3801 15.697C14.6128 14.5678 16.2043 12.355 16.463 9.75H13.9834C13.8911 11.8308 13.4175 13.7298 12.6719 15.1771C12.5802 15.3551 12.4829 15.5288 12.3801 15.697ZM12.4818 9.75H9.75V16.3058C10.2908 16.0282 10.8474 15.4434 11.3385 14.4902C11.9607 13.2823 12.3905 11.6264 12.4818 9.75ZM12.4818 8.25H9.75V1.69419C10.2908 1.9718 10.8474 2.55664 11.3385 3.50984C11.9607 4.71769 12.3905 6.37361 12.4818 8.25ZM13.9834 8.25C13.8911 6.16919 13.4175 4.27018 12.6719 2.8229C12.5802 2.64482 12.4828 2.47103 12.3799 2.30283C13.6339 2.93688 14.6858 3.91295 15.4133 5.10935C15.9804 6.04183 16.3497 7.10763 16.463 8.25H13.9834Z" fill="#093550"/>
</svg>
