<svg width="16" height="16" viewBox="0 0 16 16" fill="none" xmlns="http://www.w3.org/2000/svg">
<path fill-rule="evenodd" clip-rule="evenodd" d="M8 1.33333C4.3181 1.33333 1.33333 4.3181 1.33333 8C1.33333 11.6819 4.3181 14.6667 8 14.6667C11.6819 14.6667 14.6667 11.6819 14.6667 8C14.6667 4.3181 11.6819 1.33333 8 1.33333ZM0 8C0 3.58172 3.58172 0 8 0C12.4183 0 16 3.58172 16 8C16 12.4183 12.4183 16 8 16C3.58172 16 0 12.4183 0 8ZM8 3.33333C8.36819 3.33333 8.66667 3.63181 8.66667 4V7.33333H12C12.3682 7.33333 12.6667 7.63181 12.6667 8C12.6667 8.36819 12.3682 8.66667 12 8.66667H8C7.63181 8.66667 7.33333 8.36819 7.33333 8V4C7.33333 3.63181 7.63181 3.33333 8 3.33333Z" fill="#093550"/>
</svg>
