<svg width="14" height="14" viewBox="0 0 14 14" fill="none" xmlns="http://www.w3.org/2000/svg">
<path fill-rule="evenodd" clip-rule="evenodd" d="M3.88033 0.0150064C4.0509 0.0441652 4.27402 0.130569 4.43358 0.348594L5.85031 2.28436C6.1411 2.68169 6.20272 3.20225 6.01272 3.65649L5.38198 5.16448C5.36848 5.19676 5.37668 5.22035 5.38353 5.2301C5.78339 5.79809 6.28306 6.40383 6.91204 7.03556C6.92188 7.04429 6.93152 7.05337 6.94094 7.06279C7.58145 7.7034 8.19545 8.21093 8.77072 8.61601C8.78047 8.62287 8.80405 8.63107 8.83634 8.61757L10.344 7.98682C10.7982 7.79678 11.3187 7.85841 11.7161 8.14926L13.6515 9.56608C13.8695 9.72567 13.9559 9.94881 13.985 10.1194C14.0128 10.2823 13.9972 10.437 13.976 10.555C13.9333 10.793 13.8367 11.0438 13.7414 11.2562C13.5467 11.6903 13.282 12.1279 13.1536 12.3184L13.0604 12.4567L13.0544 12.4655C12.7944 12.8513 12.4048 13.4295 11.7649 13.7161C10.6584 14.2117 9.23016 14.0187 7.83104 13.4446C6.42591 12.8679 4.93075 11.861 3.57365 10.5173C3.5624 10.5075 3.55141 10.4973 3.54069 10.4865C2.16798 9.11372 1.14029 7.59543 0.555383 6.16979C-0.0187407 4.77044 -0.211634 3.34199 0.283922 2.23535C0.570505 1.59537 1.14862 1.20568 1.53434 0.945677C1.53729 0.943684 1.54024 0.941698 1.54317 0.93972L1.68141 0.846528C1.87194 0.718087 2.30948 0.453319 2.74354 0.258605C2.95597 0.16331 3.20679 0.0667054 3.4447 0.023962C3.56278 0.002749 3.71743 -0.0128416 3.88033 0.0150064ZM4.41492 9.50428C4.42451 9.51282 4.43392 9.5217 4.44312 9.5309C5.71256 10.8006 7.08872 11.7211 8.3293 12.2302C9.59617 12.7501 10.6057 12.797 11.2284 12.5181C11.4806 12.4052 11.6827 12.1524 11.972 11.723L12.0652 11.5848C12.1616 11.4417 12.3864 11.0701 12.5439 10.719C12.5896 10.6171 12.6239 10.5294 12.6477 10.4579L10.9408 9.20842C10.9147 9.18927 10.8804 9.18521 10.8505 9.19772L9.34286 9.82847C8.9157 10.0072 8.41258 9.96914 8.01511 9.68925C7.38461 9.24528 6.72175 8.69708 6.03838 8.01639C6.02823 8.00742 6.0183 7.99808 6.00859 7.98838C5.31612 7.29584 4.75981 6.62419 4.31034 5.98572C4.03052 5.58824 3.99249 5.08512 4.17116 4.65795L4.8019 3.14996C4.81441 3.12005 4.81036 3.08578 4.79121 3.05961L3.54178 1.35244C3.4703 1.37622 3.3826 1.41052 3.28069 1.45624C2.92963 1.61372 2.55805 1.83851 2.41503 1.93493L2.27679 2.02812C1.84749 2.31753 1.5947 2.51964 1.48177 2.77183C1.20286 3.39469 1.24977 4.40443 1.76963 5.67153C2.27148 6.89473 3.17315 8.24969 4.41492 9.50428Z" fill="#093550"/>
</svg>
