<svg width="16" height="12" viewBox="0 0 16 12" fill="none" xmlns="http://www.w3.org/2000/svg">
<path fill-rule="evenodd" clip-rule="evenodd" d="M0 2.35714C0 1.05533 1.09442 0 2.44444 0H13.5556C14.9056 0 16 1.05533 16 2.35714V9.64286C16 10.9447 14.9056 12 13.5556 12H2.44444C1.09442 12 0 10.9447 0 9.64286V2.35714ZM2.44444 1.28571C1.83079 1.28571 1.33333 1.76541 1.33333 2.35714V9.64286C1.33333 10.2346 1.83079 10.7143 2.44444 10.7143H13.5556C14.1692 10.7143 14.6667 10.2346 14.6667 9.64286V2.35714C14.6667 1.76541 14.1692 1.28571 13.5556 1.28571H2.44444ZM2.82716 2.79828C3.06678 2.52872 3.48764 2.4975 3.76719 2.72856L8 6.2271L12.2328 2.72856C12.5124 2.4975 12.9332 2.52872 13.1728 2.79828C13.4125 3.06785 13.3801 3.47369 13.1005 3.70474L8.43386 7.56189C8.1842 7.76824 7.8158 7.76824 7.56614 7.56189L2.89947 3.70474C2.61992 3.47369 2.58755 3.06785 2.82716 2.79828Z" fill="#093550"/>
</svg>
