<svg width="14" height="18" viewBox="0 0 14 18" fill="none" xmlns="http://www.w3.org/2000/svg">
<path fill-rule="evenodd" clip-rule="evenodd" d="M7 1.5C4.01574 1.5 1.5 4.13089 1.5 7.5C1.5 9.1823 2.22476 10.9061 3.22333 12.4688C4.21574 14.0219 5.43407 15.3468 6.31993 16.2155C6.70668 16.5948 7.29332 16.5948 7.68007 16.2155C8.56593 15.3468 9.78426 14.0219 10.7767 12.4688C11.7752 10.9061 12.5 9.1823 12.5 7.5C12.5 4.13089 9.98426 1.5 7 1.5ZM0 7.5C5.96046e-08 3.41326 3.0807 0 7 0C10.9193 0 14 3.41326 14 7.5C14 9.59105 13.1105 11.6023 12.0407 13.2765C10.9647 14.9603 9.66065 16.3742 8.7303 17.2865C7.76023 18.2378 6.23977 18.2378 5.2697 17.2865C4.33935 16.3742 3.03528 14.9603 1.95934 13.2765C0.889543 11.6023 0 9.59105 0 7.5ZM7 5.50424C6.17157 5.50424 5.5 6.17581 5.5 7.00424C5.5 7.83267 6.17157 8.50424 7 8.50424C7.82843 8.50424 8.5 7.83267 8.5 7.00424C8.5 6.17581 7.82843 5.50424 7 5.50424ZM4 7.00424C4 5.34739 5.34315 4.00424 7 4.00424C8.65685 4.00424 10 5.34739 10 7.00424C10 8.6611 8.65685 10.0042 7 10.0042C5.34315 10.0042 4 8.6611 4 7.00424Z" fill="#093550"/>
</svg>
